<?xml version="1.0" encoding="UTF-8" standalone="no"?>
<!-- Created with Inkscape (http://www.inkscape.org/) -->

<svg
   xmlns:dc="http://purl.org/dc/elements/1.1/"
   xmlns:cc="http://creativecommons.org/ns#"
   xmlns:rdf="http://www.w3.org/1999/02/22-rdf-syntax-ns#"
   xmlns:svg="http://www.w3.org/2000/svg"
   xmlns="http://www.w3.org/2000/svg"
   xmlns:sodipodi="http://sodipodi.sourceforge.net/DTD/sodipodi-0.dtd"
   xmlns:inkscape="http://www.inkscape.org/namespaces/inkscape"
   width="48"
   height="48"
   id="svg2"
   version="1.1"
   inkscape:version="0.48.5 r10040">
  <defs
     id="defs4" />
  <sodipodi:namedview
     id="base"
     pagecolor="#ffffff"
     bordercolor="#666666"
     borderopacity="1.0"
     inkscape:pageopacity="0.0"
     inkscape:pageshadow="2"
     inkscape:zoom="7.9195959"
     inkscape:cx="18.484662"
     inkscape:cy="30.288961"
     inkscape:document-units="px"
     inkscape:current-layer="layer1"
     showgrid="false"
     inkscape:window-width="1600"
     inkscape:window-height="838"
     inkscape:window-x="-8"
     inkscape:window-y="-8"
     inkscape:window-maximized="1" />
  <metadata
     id="metadata7">
    <rdf:RDF>
      <cc:Work
         rdf:about="">
        <dc:format>image/svg+xml</dc:format>
        <dc:type
           rdf:resource="http://purl.org/dc/dcmitype/StillImage" />
        <dc:title></dc:title>
      </cc:Work>
    </rdf:RDF>
  </metadata>
  <g
     inkscape:label="Ebene 1"
     inkscape:groupmode="layer"
     id="layer1"
     transform="translate(0,-1004.3622)">
    <path
       style="fill:none;stroke:#000000;stroke-width:1px;stroke-linecap:round;stroke-linejoin:miter;stroke-opacity:1"
       d="M 0.50507627,1052.1097 47.855977,1004.885"
       id="path3761"
       inkscape:connector-curvature="0" />
    <path
       style="fill:none;stroke:#000000;stroke-width:1px;stroke-linecap:butt;stroke-linejoin:miter;stroke-opacity:1"
       d="m 3.0304576,4.3109023 33.7138414,0"
       id="path3763"
       inkscape:connector-curvature="0"
       transform="translate(0,1004.3622)" />
    <path
       style="fill:none;stroke:#000000;stroke-width:1px;stroke-linecap:butt;stroke-linejoin:miter;stroke-opacity:1"
       d="m 3.661803,9.4879341 30.178307,0"
       id="path3767"
       inkscape:connector-curvature="0"
       transform="translate(0,1004.3622)" />
    <path
       style="fill:none;stroke:#000000;stroke-width:1px;stroke-linecap:butt;stroke-linejoin:miter;stroke-opacity:1"
       d="m 3.7880721,14.791235 26.0114279,0"
       id="path3769"
       inkscape:connector-curvature="0"
       transform="translate(0,1004.3622)" />
    <path
       style="fill:none;stroke:#000000;stroke-width:1px;stroke-linecap:butt;stroke-linejoin:miter;stroke-opacity:1"
       d="m 3.9143411,20.599612 19.3191679,0"
       id="path3771"
       inkscape:connector-curvature="0"
       transform="translate(0,1004.3622)" />
    <path
       style="fill:none;stroke:#000000;stroke-width:1px;stroke-linecap:butt;stroke-linejoin:miter;stroke-opacity:1"
       d="m 4.0406102,26.660527 12.3743688,0"
       id="path3773"
       inkscape:connector-curvature="0"
       transform="translate(0,1004.3622)" />
    <path
       style="fill:none;stroke:#000000;stroke-width:1px;stroke-linecap:butt;stroke-linejoin:miter;stroke-opacity:1"
       d="m 4.4194174,32.090097 7.7024136,0"
       id="path3775"
       inkscape:connector-curvature="0"
       transform="translate(0,1004.3622)" />
    <path
       style="fill:none;stroke:#000000;stroke-width:1px;stroke-linecap:butt;stroke-linejoin:miter;stroke-opacity:1"
       d="m 4.5456865,36.383246 4.5456864,0"
       id="path3777"
       inkscape:connector-curvature="0"
       transform="translate(0,1004.3622)" />
    <path
       style="fill:none;stroke:#00ff00;stroke-width:1px;stroke-linecap:butt;stroke-linejoin:miter;stroke-opacity:1"
       d="m 31.693536,36.004439 5.682108,-0.12627"
       id="path3783"
       inkscape:connector-curvature="0"
       transform="translate(0,1004.3622)" />
    <path
       style="fill:#00ff00;stroke:#00ff00;stroke-width:1px;stroke-linecap:butt;stroke-linejoin:miter;stroke-opacity:1"
       d="m 31.693536,36.762053 c -0.04209,0.168359 -0.08418,0.336717 -0.126269,0.505076 -0.04209,0 -0.09651,-0.02976 -0.126269,0 -0.02976,0.02976 0,0.08418 0,0.126269 0,0.04209 0,0.168359 0,0.126269 0,-0.08418 0,-0.336717 0,-0.252538 0,0.126269 0,0.252538 0,0.378807 0,0.04209 0,0.08418 0,0.126269 0,0.04209 0.02976,0.09651 0,0.12627 -0.02976,0.02976 -0.09651,-0.02976 -0.126269,0 -0.05952,0.05952 0.05952,0.193014 0,0.252538 -0.02976,0.02976 -0.09651,-0.02976 -0.126269,0 -0.02976,0.02976 0.01882,0.08862 0,0.126269 -0.02662,0.05324 -0.09965,0.07303 -0.126269,0.126269 -0.01882,0.03765 0.02976,0.09651 0,0.126269 -0.02976,0.02976 -0.09651,-0.02976 -0.126269,0 -0.02976,0.02976 0.02976,0.09651 0,0.126269 -0.02976,0.02976 -0.09651,-0.02976 -0.126269,0 -0.02976,0.02976 0.04209,0.126269 0,0.126269 -0.04209,0 0,-0.168359 0,-0.126269 0,0.08418 0,0.168359 0,0.252538 0,0.04209 0.02976,0.09651 0,0.126269 -0.02976,0.02976 -0.09651,-0.02976 -0.126269,0 -0.02976,0.02976 0.04209,0.126269 0,0.126269 -0.04209,0 0,-0.168359 0,-0.126269 0,0.08418 0,0.168359 0,0.252538 0,0.03062 -0.0041,0.374747 0,0.378807 0.05952,0.05952 0.193014,-0.05952 0.252538,0 0.02976,0.02976 -0.02976,0.09651 0,0.12627 0.02976,0.02976 0.09651,-0.02976 0.126269,0 0.02976,0.02976 -0.02976,0.09651 0,0.126269 0.02976,0.02976 0.09651,-0.02976 0.126269,0 0.02976,0.02976 -0.02976,0.09651 0,0.126269 0.05952,0.05952 0.193014,-0.05952 0.252538,0 0.02976,0.02976 -0.02976,0.09651 0,0.126269 0.02976,0.02976 0.09651,-0.02976 0.126269,0 0.168359,0.168359 -0.210448,0.126269 0.126269,0.126269 0.04209,0 0.168359,0 0.126269,0 -0.08418,0 -0.252538,-0.08418 -0.252538,0 0,0.09412 0.163253,0.09651 0.252538,0.126269 0.03993,0.01331 0.126269,-0.04209 0.126269,0 0,0.04209 -0.168358,0 -0.126269,0 0.715525,0 0.04209,-0.08418 0.252538,0.126269 0.03039,0.03038 0.474692,-0.03038 0.505077,0 0.02976,0.02976 -0.02976,0.09651 0,0.126269 0.02976,0.02976 0.09651,-0.02976 0.126269,0 0.02976,0.02976 -0.02976,0.09651 0,0.126269 0.02976,0.02976 0.08418,0 0.126269,0 0.252538,0 0.505076,0 0.757614,0 0.04209,0 0.09651,-0.02976 0.126269,0 0.02976,0.02976 -0.02976,0.09651 0,0.126269 0.02976,0.02976 0.08418,0 0.126269,0 0.04209,0 0.08418,0 0.126269,0 0.462987,0 0.925974,0 1.38896,0 0.04209,0 0.08418,0 0.126269,0 0.04209,0 0.09651,-0.02976 0.126269,0 0.02976,0.02976 -0.02976,0.09651 0,0.126269 0.02976,0.02976 0.126269,-0.04209 0.126269,0 0,0.04209 -0.168358,0 -0.126269,0 0.126269,0 0.252538,0 0.378807,0 0.04209,0 0.08418,0 0.12627,0 0.04209,0 0.09651,0.02976 0.126269,0 0.02976,-0.02976 -0.02976,-0.09651 0,-0.126269 0.04205,-0.04205 0.210491,0.04205 0.252538,0 0.05952,-0.05952 -0.05952,-0.193014 0,-0.252538 0.02976,-0.02976 0.09651,0.02976 0.126269,0 0.02976,-0.02976 -0.02976,-0.09651 0,-0.126269 0.05952,-0.05952 0.193014,0.05952 0.252538,0 0.05952,-0.05952 -0.08418,-0.252538 0,-0.252538 0.04209,0 -0.04209,0.126269 0,0.126269 0.262751,0 0.05081,-0.177076 0.126269,-0.252538 0.02976,-0.02976 0.09651,0.02976 0.126269,0 0.02976,-0.02976 -0.02976,-0.09651 0,-0.126269 0.05952,-0.05952 0.193014,0.05952 0.252538,0 0.05952,-0.05952 -0.05952,-0.193015 0,-0.252538 0.02976,-0.02976 0.09651,0.02976 0.126269,0 0.02976,-0.02976 -0.04209,-0.12627 0,-0.12627 0.03773,0 -0.08312,0.418782 0.126269,0 0.01882,-0.03765 -0.01882,-0.08862 0,-0.126269 0.02662,-0.05324 0.09965,-0.07303 0.126269,-0.126269 0.01882,-0.03765 -0.01882,-0.08862 0,-0.126269 0.02662,-0.05324 0.09965,-0.07303 0.12627,-0.126269 0.01882,-0.03765 -0.01882,-0.08862 0,-0.126269 0.26275,-0.525501 -0.0087,0.134986 0.252538,-0.126269 0.02976,-0.02976 0,-0.08418 0,-0.126269 0,-0.04209 0,-0.08418 0,-0.126269 0,-0.08418 0,-0.168359 0,-0.252538 0,-0.04209 -0.04209,-0.126269 0,-0.126269 0.04209,0 0,0.168358 0,0.126269 0,-0.126269 0,-0.252538 0,-0.378807 0,-0.05687 0.01921,-0.34038 0,-0.378808 -0.262751,-0.525501 0.0087,0.134987 -0.252538,-0.126269 -0.05952,-0.05952 0.05952,-0.193014 0,-0.252538 -0.02976,-0.02976 -0.09651,0.02976 -0.12627,0 -0.02976,-0.02976 0.02976,-0.09651 0,-0.126269 -0.02976,-0.02976 -0.09651,0.02976 -0.126269,0 -0.03038,-0.03038 0.03038,-0.474692 0,-0.505076 -0.02976,-0.02976 -0.09651,0.02976 -0.126269,0 -0.02976,-0.02976 0.02976,-0.09651 0,-0.126269 -0.05952,-0.05952 -0.193014,0.05952 -0.252538,0 -0.02976,-0.02976 0.02976,-0.09651 0,-0.126269 -0.02976,-0.02976 -0.09651,0.02976 -0.126269,0 -0.02976,-0.02976 0.02976,-0.09651 0,-0.126269 -0.05952,-0.05952 -0.193014,0.05952 -0.252538,0 -0.02976,-0.02976 0.02976,-0.09651 0,-0.126269 -0.03038,-0.03038 -0.474692,0.03038 -0.505076,0 -0.02976,-0.02976 0.02976,-0.09651 0,-0.126269 -0.0041,-0.0041 -0.348184,0 -0.378808,0 -0.294627,0 -0.589255,0 -0.883883,0 -0.05687,0 -0.340379,-0.01921 -0.378807,0 -0.05324,0.02662 -0.07303,0.09965 -0.126269,0.126269 -0.07529,0.03765 -0.177246,-0.03765 -0.252538,0 -0.05324,0.02662 -0.07303,0.09965 -0.126269,0.126269 -0.07936,0.03968 -0.425714,-0.03968 -0.505077,0 -0.05324,0.02662 -0.07303,0.09965 -0.126269,0.126269 -0.03765,0.01882 -0.08862,-0.01882 -0.126269,0 -0.05324,0.02662 -0.07303,0.09965 -0.126269,0.126269 -0.0685,0.03425 -0.470526,-0.03455 -0.505076,0 -0.02976,0.02976 0.02976,0.09651 0,0.126269 -0.05952,0.05952 -0.193015,-0.05952 -0.252538,0 -0.02976,0.02976 0.02976,0.09651 0,0.126269 -0.02976,0.02976 -0.09651,-0.02976 -0.126269,0 -0.02976,0.02976 0.02976,0.09651 0,0.126269 -0.02976,0.02976 -0.08475,0.0069 -0.126269,0 -0.211697,-0.03528 -0.673436,0.08418 -0.631346,-0.126269 0.04209,-0.210449 0.673435,-0.08418 0.631346,0.126269 -0.04209,0.210448 -0.420897,-0.08418 -0.631346,-0.126269 z"
       id="path3785"
       inkscape:connector-curvature="0"
       transform="translate(0,1004.3622)" />
    <path
       style="fill:none;stroke:#000000;stroke-width:1px;stroke-linecap:butt;stroke-linejoin:miter;stroke-opacity:1"
       d="m 30.557114,1034.0532 c 0.336718,0 0.673435,0 1.010153,0 0.04209,0 0.09651,-0.03 0.126269,0 0.02976,0.03 -0.02976,0.096 0,0.1263 0.08267,0.083 0.294238,-0.1275 0.378807,0.1262 0.02662,0.08 -0.03765,0.1773 0,0.2526 0.01882,0.038 0.09651,-0.03 0.126269,0 0.0156,0.016 0,0.4259 0,0.505 0,0.8418 0,1.6836 0,2.5254 0,0.057 0.01921,0.3404 0,0.3788 -0.05324,0.1065 -0.199298,0.1461 -0.252538,0.2526 -0.03834,0.077 0.03834,0.6809 0,0.7576 -0.02662,0.053 -0.09965,0.073 -0.126269,0.1262 -0.01882,0.038 0.01882,0.089 0,0.1263 -0.05324,0.1065 -0.199299,0.1461 -0.252538,0.2526 -0.05051,0.101 0.05051,0.2777 0,0.3788 -0.02662,0.053 -0.107446,0.07 -0.126269,0.1262 -1.91e-4,6e-4 1.2e-4,0.3787 0,0.3788 -0.02976,0.03 -0.08862,-0.019 -0.126269,0 -0.279188,0.1396 -0.03918,0.078 -0.126269,0.2526 -0.02662,0.053 -0.09965,0.073 -0.12627,0.1262 -0.02503,0.05 0.02581,0.353 0,0.3789 -0.02976,0.03 -0.09651,-0.03 -0.126269,0 -0.02976,0.03 0.02976,0.097 0,0.1262 -0.02976,0.03 -0.09651,-0.03 -0.126269,0 -0.05952,0.059 0.03765,0.1773 0,0.2526 -0.02662,0.053 -0.09965,0.073 -0.126269,0.1262 -0.01882,0.038 0.02976,0.096 0,0.1263 -0.02976,0.03 -0.09651,-0.03 -0.126269,0 -0.05952,0.06 0.03765,0.1772 0,0.2525 -0.05324,0.1065 -0.199298,0.1461 -0.252538,0.2526 -0.01882,0.038 0.02976,0.096 0,0.1262 -0.02976,0.03 -0.09651,-0.03 -0.126269,0 -0.02976,0.03 0,0.084 0,0.1263 0,0.2526 0,0.5051 0,0.7576 0,0.042 0.02976,0.096 0,0.1263 -0.02976,0.03 -0.09651,-0.03 -0.126269,0 -0.02976,0.03 0,0.084 0,0.1263 0,0.2104 0,0.4209 0,0.6313 0,0.042 -0.02976,0.096 0,0.1263 0.02976,0.03 0.09651,-0.03 0.126269,0 0.05952,0.06 -0.03765,0.1772 0,0.2525 0.262751,0.5255 -0.0087,-0.135 0.252538,0.1263 0.02976,0.03 -0.01882,0.089 0,0.1263 0.02662,0.053 0.09965,0.073 0.126269,0.1262 0.01882,0.038 -0.03765,0.1075 0,0.1263 0.07529,0.038 0.177246,-0.038 0.252538,0 0.03765,0.019 0,0.084 0,0.1263 0.04209,0.042 0.0698,0.1074 0.126269,0.1262 0.07986,0.027 0.182497,-0.047 0.252539,0 0.07831,0.052 0.04796,0.2004 0.126269,0.2526 0.07004,0.047 0.172678,-0.027 0.252538,0 0.112938,0.038 0.146058,0.1993 0.252538,0.2525 0.07529,0.038 0.193014,-0.06 0.252538,0 0.02976,0.03 -0.02976,0.097 0,0.1263 0.03455,0.035 0.436577,-0.034 0.505076,0 0.05324,0.027 0.08418,0.084 0.126269,0.1262 0.08418,0 0.172679,-0.027 0.252539,0 0.05647,0.019 0.0698,0.1075 0.126269,0.1263 0.06983,0.023 0.630454,0 0.757614,0 0.04209,0 0.08862,-0.019 0.126269,0 0.05324,0.027 0.0698,0.1075 0.126269,0.1263 0.07986,0.027 0.168359,0 0.252538,0 0.08418,0 0.168359,0 0.252538,0 0.336718,0 0.673435,0 1.010153,0 0.08782,0 0.585682,0.023 0.631345,0 0.05324,-0.027 0.07303,-0.1 0.126269,-0.1263 0.03765,-0.019 0.107446,0.038 0.126269,0 0.03765,-0.075 -0.03765,-0.1772 0,-0.2525 0.02621,-0.052 0.334733,0.044 0.378808,0 0.02976,-0.03 -0.02976,-0.096 0,-0.1263 0.02976,-0.03 0.08418,0 0.126269,0 0,-0.084 -0.03765,-0.1772 0,-0.2525 0.03765,-0.075 0.193014,0.06 0.252538,0 0.02976,-0.03 -0.02976,-0.096 0,-0.1263 0.02976,-0.03 0.08862,0.019 0.126269,0 0.05324,-0.027 0.07303,-0.1 0.126269,-0.1263 0.03765,-0.019 0.09651,0.03 0.126269,0 0.02976,-0.03 -0.02976,-0.096 0,-0.1262 0.02976,-0.03 0.09651,0.03 0.126269,0 0.06655,-0.067 0.04796,-0.2004 0.126269,-0.2526 0.01574,-0.01 0.490328,0.015 0.505076,0 0.02976,-0.03 -0.02976,-0.096 0,-0.1262 0.02976,-0.03 0.09651,0.03 0.12627,0 0.06313,-0.063 -0.06314,-0.3157 0,-0.3789 0.02976,-0.03 0.09651,0.03 0.126269,0 0.02976,-0.03 -0.01882,-0.089 0,-0.1262 0.02662,-0.053 0.09965,-0.073 0.126269,-0.1263 0.03765,-0.075 -0.03765,-0.1772 0,-0.2525 0.02662,-0.053 0.09965,-0.073 0.126269,-0.1263 0.0166,-0.033 0,-0.439 0,-0.5051 0,-0.3788 0,-0.7576 0,-1.1364 0,-0.2946 0,-0.5893 0,-0.8839 0,-0.042 0,-0.084 0,-0.1262 0,-0.042 0.02976,-0.097 0,-0.1263 -0.02976,-0.03 -0.09651,0.03 -0.126269,0 -0.02976,-0.03 0.02976,-0.097 0,-0.1263 -0.02976,-0.03 -0.09651,0.03 -0.126269,0 -0.02976,-0.03 0.01882,-0.089 0,-0.1263 -0.02662,-0.053 -0.08418,-0.084 -0.126269,-0.1262 -0.04209,-0.042 -0.07303,-0.1 -0.12627,-0.1263 -0.03765,-0.019 -0.09651,0.03 -0.126269,0 -0.02976,-0.03 0.02976,-0.096 0,-0.1263 -0.02976,-0.03 -0.09651,0.03 -0.126269,0 -0.02976,-0.03 0.02976,-0.097 0,-0.1262 -0.05952,-0.06 -0.193014,0.06 -0.252538,0 -0.02976,-0.03 0.01882,-0.089 0,-0.1263 -0.02662,-0.053 -0.08418,-0.084 -0.126269,-0.1263 -0.04209,-0.042 -0.07303,-0.1 -0.126269,-0.1262 -0.03765,-0.019 -0.09651,0.03 -0.126269,0 -0.05952,-0.06 0.05952,-0.1931 0,-0.2526 -0.02976,-0.03 -0.09651,0.03 -0.126269,0 -0.06313,-0.063 0.06313,-0.3156 0,-0.3788 -0.05952,-0.06 -0.193014,0.06 -0.252538,0 -0.02976,-0.03 0.01331,-0.086 0,-0.1263 -0.02976,-0.089 -0.09651,-0.1632 -0.126269,-0.2525 -0.01331,-0.04 0.02976,-0.097 0,-0.1263 -0.02976,-0.03 -0.09651,0.03 -0.126269,0 -0.06313,-0.063 0.06313,-0.3156 0,-0.3788 -0.02976,-0.03 -0.09651,0.03 -0.126269,0 -0.02976,-0.03 0,-0.084 0,-0.1262 0,-0.3368 0,-0.6735 0,-1.0102 0,-0.5892 0,-1.1785 0,-1.7678 0,-0.042 0,-0.084 0,-0.1262 0,-0.042 -0.02976,-0.097 0,-0.1263 0.02976,-0.03 0.09651,0.03 0.126269,0 0.06313,-0.063 -0.06313,-0.3157 0,-0.3788 0.02976,-0.03 0.09651,0.03 0.126269,0 0.02976,-0.03 -0.02976,-0.096 0,-0.1263 0.02976,-0.03 0.09651,0.03 0.126269,0 0.05952,-0.06 -0.05952,-0.193 0,-0.2525 0.05952,-0.06 0.193014,0.06 0.252538,0 0.02976,-0.03 -0.02976,-0.097 0,-0.1263 0.02976,-0.03 0.08862,0.019 0.126269,0 0.05324,-0.027 0.07303,-0.1 0.126269,-0.1262 0.03765,-0.019 0.08862,0.019 0.126269,0 0.10648,-0.053 0.146059,-0.1993 0.252538,-0.2526 0.03265,-0.016 0.668115,0 0.757615,0"
       id="path3781"
       inkscape:connector-curvature="0" />
    <path
       style="fill:none;stroke:#000000;stroke-width:0.3;stroke-linecap:butt;stroke-linejoin:miter;stroke-opacity:1;stroke-miterlimit:4;stroke-dasharray:none"
       d="m 32.829958,27.923218 c 0.404061,-0.538748 0.378807,-0.294628 0.378807,-0.631345 0,-0.04209 -0.01331,-0.08634 0,-0.126269 0.02976,-0.08929 0.05972,-0.185989 0.126269,-0.252538 0.02976,-0.02976 0.08862,0.01882 0.126269,0 0.05324,-0.02662 0.09965,-0.07303 0.126269,-0.126269 0.01295,-0.0259 0.01781,-0.361001 0,-0.378808 -0.02976,-0.02976 -0.09651,0.02976 -0.126269,0 -0.02976,-0.02976 0.02976,-0.09651 0,-0.126269 -0.02976,-0.02976 -0.09651,0.02976 -0.126269,0 -0.02976,-0.02976 0.02976,-0.09651 0,-0.126269 -0.02976,-0.02976 -0.09651,0.02976 -0.126269,0 -0.02976,-0.02976 0.02976,-0.09651 0,-0.126269 -0.02976,-0.02976 -0.09651,0.02976 -0.126269,0 -0.02976,-0.02976 0.02976,-0.09651 0,-0.126269 -0.02976,-0.02976 -0.09651,0.02976 -0.126269,0 -0.05952,-0.05952 0.05952,-0.193014 0,-0.252538 -0.02976,-0.02976 -0.09651,0.02976 -0.126269,0 -0.02976,-0.02976 0.02976,-0.09651 0,-0.126269 -0.02976,-0.02976 -0.09651,0.02976 -0.126269,0 -0.02976,-0.02976 0.01331,-0.08634 0,-0.126269 -0.02976,-0.08929 -0.09651,-0.163253 -0.126269,-0.252538 -0.01331,-0.03993 0.01882,-0.08862 0,-0.126269 -0.02662,-0.05324 -0.09965,-0.07303 -0.126269,-0.12627 -0.02283,-0.04566 0,-0.54352 0,-0.631345 0,-0.04637 -0.0051,-0.499995 0,-0.505076 0.05952,-0.05952 0.214892,0.07529 0.252538,0 0.03765,-0.07529 -0.03765,-0.177246 0,-0.252538 0.01882,-0.03765 0.09651,0.02976 0.126269,0 0.02976,-0.02976 -0.02976,-0.09651 0,-0.126269 0.02976,-0.02976 0.09651,0.02976 0.126269,0 0.02976,-0.02976 -0.02976,-0.09651 0,-0.126269 0.02976,-0.02976 0.09651,0.02976 0.126269,0 0.01114,-0.01114 0,-0.487746 0,-0.126269"
       id="path3787"
       inkscape:connector-curvature="0"
       transform="translate(0,1004.3622)" />
    <path
       style="fill:none;stroke:#000000;stroke-width:0.2;stroke-linecap:butt;stroke-linejoin:miter;stroke-opacity:1;stroke-miterlimit:4;stroke-dasharray:none"
       d="m 36.112954,27.67068 c -0.168359,-0.08418 -0.589256,-0.08418 -0.505077,-0.252538 0.08418,-0.168359 0.589256,0.420897 0.505077,0.252538 0.09109,-0.438973 -0.610602,-0.337319 -0.757615,-0.631345 -0.01921,-0.03843 0,-0.321941 0,-0.378808 0,-0.04209 0,-0.08418 0,-0.126269 0,-0.04209 -0.02976,-0.09651 0,-0.126269 0.02976,-0.02976 0.09651,0.02976 0.126269,0 0.02976,-0.02976 -0.02976,-0.09651 0,-0.126269 0.02976,-0.02976 0.09651,0.02976 0.126269,0 0.05952,-0.05952 -0.05952,-0.193014 0,-0.252538 0.06655,-0.06655 0.177246,-0.0698 0.252538,-0.126269 0.09524,-0.07143 0.153485,-0.186502 0.252539,-0.252538 0.03502,-0.02335 0.09651,0.02976 0.126269,0 0.06655,-0.06655 0.05972,-0.185989 0.126269,-0.252538 0.611225,-0.611226 -0.09505,0.273817 0.505076,-0.126269 0.07831,-0.05221 0.05972,-0.185989 0.126269,-0.252538 0.02976,-0.02976 0.08862,0.01882 0.126269,0 0.05324,-0.02662 0.08418,-0.08418 0.126269,-0.12627 0.04209,-0.04209 0.09965,-0.07303 0.126269,-0.126269 0.01921,-0.03843 0,-0.321941 0,-0.378807 0,-0.04209 0,-0.08418 0,-0.126269 0,-0.04209 0.02976,-0.09651 0,-0.126269 -0.05952,-0.05952 -0.193014,0.05952 -0.252538,0 -0.02976,-0.02976 0.02976,-0.09651 0,-0.126269 -0.02976,-0.02976 -0.09651,0.02976 -0.126269,0 -0.02976,-0.02976 0.02976,-0.09651 0,-0.126269 -0.02976,-0.02976 -0.08862,0.01882 -0.126269,0 -0.05324,-0.02662 -0.07303,-0.09965 -0.126269,-0.126269 -0.03765,-0.01882 -0.08862,0.01882 -0.126269,0 -0.10648,-0.05324 -0.146059,-0.199299 -0.252538,-0.252538 -0.03765,-0.01882 -0.08862,0.01882 -0.126269,0 -0.05324,-0.02662 -0.07303,-0.09965 -0.126269,-0.126269 -0.03765,-0.01882 -0.09651,0.02976 -0.12627,0 -0.02976,-0.02976 0,-0.08418 0,-0.126269 0,-0.04209 0,-0.08418 0,-0.126269 0,-0.04209 0.01882,-0.08862 0,-0.12627 -0.01644,-0.03287 -0.224976,-0.15383 -0.126269,-0.252538 0.02976,-0.02976 0.08418,0 0.126269,0 0.04209,0 0.08418,0 0.12627,0"
       id="path3789"
       inkscape:connector-curvature="0"
       transform="translate(0,1004.3622)" />
  </g>
</svg>
