<?xml version="1.0" encoding="UTF-8" standalone="no"?>
<!-- Created with Inkscape (http://www.inkscape.org/) -->

<svg
   xmlns:dc="http://purl.org/dc/elements/1.1/"
   xmlns:cc="http://creativecommons.org/ns#"
   xmlns:rdf="http://www.w3.org/1999/02/22-rdf-syntax-ns#"
   xmlns:svg="http://www.w3.org/2000/svg"
   xmlns="http://www.w3.org/2000/svg"
   xmlns:sodipodi="http://sodipodi.sourceforge.net/DTD/sodipodi-0.dtd"
   xmlns:inkscape="http://www.inkscape.org/namespaces/inkscape"
   width="64px"
   height="64px"
   id="svg2985"
   version="1.1"
   inkscape:version="0.48.5 r10040"
   sodipodi:docname="Register.svg"
   inkscape:export-filename="C:\Users\Christian\git\RTNBP\src\org\rteasy\images\Register16.png"
   inkscape:export-xdpi="22.5"
   inkscape:export-ydpi="22.5">
  <defs
     id="defs2987" />
  <sodipodi:namedview
     id="base"
     pagecolor="#ffffff"
     bordercolor="#666666"
     borderopacity="1.0"
     inkscape:pageopacity="0.0"
     inkscape:pageshadow="2"
     inkscape:zoom="7.7781746"
     inkscape:cx="51.771777"
     inkscape:cy="35.192727"
     inkscape:current-layer="layer1"
     showgrid="true"
     inkscape:document-units="px"
     inkscape:grid-bbox="true"
     inkscape:window-width="1600"
     inkscape:window-height="838"
     inkscape:window-x="-8"
     inkscape:window-y="-8"
     inkscape:window-maximized="1" />
  <metadata
     id="metadata2990">
    <rdf:RDF>
      <cc:Work
         rdf:about="">
        <dc:format>image/svg+xml</dc:format>
        <dc:type
           rdf:resource="http://purl.org/dc/dcmitype/StillImage" />
        <dc:title></dc:title>
      </cc:Work>
    </rdf:RDF>
  </metadata>
  <g
     id="layer1"
     inkscape:label="Layer 1"
     inkscape:groupmode="layer">
    <path
       id="path3092-7-1-2"
       style="fill:#ffffff;fill-opacity:1;stroke:#000000;stroke-width:0.44842678;stroke-opacity:1"
       d="m 51.418706,13.06018 -37.24884,0 0,-6.4753808 37.24884,0 z m 0,6.547123 -37.24884,0 0,-6.475382 37.24884,0 z m 0,6.506457 -37.24884,3e-6 0,-6.475384 37.24884,0 z m -0.0042,6.362555 -37.24884,0 -10e-7,-6.475381 37.248841,0 z m 5.53e-4,6.503033 -37.248839,0 0,-6.475382 37.248839,0 z m 0,6.547123 -37.248839,0 0,-6.475382 37.248839,0 z m 0,6.506457 -37.248839,2e-6 0,-6.475383 37.248839,0 z m -0.0042,6.362554 -37.248839,0 -10e-7,-6.475381 37.24884,0 z"
       inkscape:connector-curvature="0" />
  </g>
</svg>
